<?xml version="1.0" encoding="UTF-8" standalone="no"?>
<svg
   version="1.0"
   width="1024.000000pt"
   height="1024.000000pt"
   viewBox="0 0 1024.000000 1024.000000"
   preserveAspectRatio="xMidYMid meet"
   id="svg3"
   sodipodi:docname="Icone_dark.svg"
   inkscape:export-filename="Icone_dark.png"
   inkscape:export-xdpi="96"
   inkscape:export-ydpi="96"
   inkscape:version="1.4 (e7c3feb1, 2024-10-09)"
   xmlns:inkscape="http://www.inkscape.org/namespaces/inkscape"
   xmlns:sodipodi="http://sodipodi.sourceforge.net/DTD/sodipodi-0.dtd"
   xmlns="http://www.w3.org/2000/svg"
   xmlns:svg="http://www.w3.org/2000/svg">
  <defs
     id="defs3" />
  <sodipodi:namedview
     id="namedview3"
     pagecolor="#ffffff"
     bordercolor="#000000"
     borderopacity="0.25"
     inkscape:showpageshadow="2"
     inkscape:pageopacity="0.0"
     inkscape:pagecheckerboard="0"
     inkscape:deskcolor="#d1d1d1"
     inkscape:document-units="pt"
     inkscape:zoom="0.64306641"
     inkscape:cx="682.66667"
     inkscape:cy="682.66667"
     inkscape:window-width="1920"
     inkscape:window-height="1027"
     inkscape:window-x="1440"
     inkscape:window-y="25"
     inkscape:window-maximized="1"
     inkscape:current-layer="svg3" />
  <g
     transform="translate(0.000000,1024.000000) scale(0.100000,-0.100000)"
     fill="#000000"
     stroke="none"
     id="g3">
    <path
       d="m 1800,10228 c -74,-4 -142,-12 -151,-17 -8,-5 -46,-12 -82,-16 -37,-4 -70,-11 -72,-15 -3,-5 -30,-12 -60,-15 -30,-4 -55,-11 -55,-15 0,-4 -20,-11 -45,-14 -25,-4 -45,-11 -45,-16 0,-5 -20,-12 -45,-16 -25,-3 -45,-10 -45,-15 0,-4 -16,-11 -35,-15 -19,-3 -35,-10 -35,-14 0,-5 -13,-11 -30,-15 -17,-4 -30,-10 -30,-15 0,-4 -12,-11 -27,-14 -34,-8 -93,-38 -93,-47 0,-4 -14,-10 -30,-14 -17,-4 -30,-11 -30,-16 0,-5 -8,-12 -17,-16 -10,-3 -34,-19 -54,-35 -20,-15 -40,-28 -45,-28 -4,0 -38,-27 -75,-60 -37,-33 -71,-60 -75,-60 -20,0 -260,-283 -287,-339 -4,-9 -18,-34 -31,-56 -47,-78 -115,-216 -121,-245 -4,-17 -11,-30 -15,-30 -5,0 -12,-16 -16,-35 -3,-19 -10,-38 -15,-41 -5,-2 -11,-27 -15,-54 -4,-28 -10,-50 -15,-50 -4,0 -11,-21 -15,-47 -3,-27 -10,-52 -14,-58 -4,-5 -11,-39 -14,-75 -4,-35 -10,-69 -14,-75 -4,-5 -7,-23 -9,-40 -4,-65 -15,-151 -20,-165 -3,-8 -5,-50 -4,-93 2,-45 -2,-83 -8,-91 -8,-9 -10,-893 -6,-3162 2,-1732 6,-3180 8,-3219 2,-38 7,-77 10,-85 3,-8 8,-55 12,-105 3,-49 10,-94 15,-100 4,-5 11,-40 15,-78 4,-37 11,-69 15,-72 5,-3 11,-23 15,-45 4,-22 11,-42 16,-45 4,-3 11,-28 15,-55 4,-28 10,-50 14,-50 4,0 11,-12 14,-28 4,-15 17,-49 30,-77 13,-27 40,-85 60,-128 38,-81 115,-206 141,-227 8,-7 15,-17 15,-23 0,-23 164,-196 273,-288 82,-70 235,-169 261,-169 7,0 21,-9 31,-20 10,-11 23,-20 29,-20 12,0 138,-61 146,-71 3,-4 24,-10 48,-14 23,-4 42,-10 42,-15 0,-5 19,-11 43,-15 23,-4 47,-11 52,-15 6,-4 28,-10 51,-14 23,-3 59,-13 80,-23 22,-9 57,-16 80,-14 23,1 45,-2 49,-8 3,-6 17,-11 31,-11 14,0 32,-7 41,-15 11,-12 19,-13 28,-5 14,11 130,8 142,-4 4,-3 37,-6 75,-6 39,0 68,-4 68,-10 0,-14 6316,-14 6325,0 3,6 44,10 90,10 66,0 84,3 89,16 3,8 10,12 16,9 20,-12 168,7 187,24 19,17 63,17 63,0 0,-18 28,-8 33,12 4,14 11,20 21,16 8,-3 18,-1 22,4 3,6 17,9 30,6 13,-2 29,2 35,9 6,8 15,11 21,8 5,-3 14,-1 21,4 7,5 59,20 117,32 58,13 112,29 121,37 8,7 19,13 23,13 4,0 26,13 49,28 23,16 56,34 74,41 17,7 34,20 37,28 4,8 13,13 21,9 8,-3 15,-1 15,5 0,5 14,15 30,20 16,6 30,17 30,25 0,8 9,14 20,14 11,0 37,18 59,40 21,22 43,40 49,40 5,0 12,6 15,14 3,7 23,22 44,33 21,11 42,29 48,41 5,12 15,22 20,22 16,0 75,64 75,81 0,9 11,25 25,37 13,12 31,38 40,57 8,20 19,34 25,30 9,-5 15,14 11,37 0,4 6,5 14,2 10,-4 15,0 15,15 0,12 6,21 15,21 8,0 15,8 15,19 0,10 7,24 15,31 8,7 15,19 15,26 0,8 5,14 10,14 6,0 10,7 10,15 0,8 5,15 10,15 6,0 10,7 10,16 0,9 9,33 19,53 24,44 47,98 57,131 4,14 14,30 22,36 9,7 17,33 20,68 2,31 8,59 13,62 5,3 9,16 9,29 0,13 7,31 16,39 11,11 14,25 9,45 -4,20 0,43 14,72 14,27 21,63 21,98 0,31 5,72 10,92 6,20 13,62 17,95 7,57 8,6471 1,6604 -2,36 -6,70 -10,75 -3,6 -9,52 -13,103 -4,50 -11,92 -16,92 -4,0 -10,26 -14,58 -3,31 -10,66 -15,77 -5,11 -12,39 -15,63 -4,24 -13,56 -21,70 -8,15 -14,35 -14,45 0,9 -4,17 -10,17 -5,0 -10,9 -10,21 0,11 -6,33 -14,47 -7,15 -31,65 -52,112 -66,144 -169,302 -267,408 -121,131 -284,278 -326,294 -12,4 -21,12 -21,17 0,5 -12,12 -27,16 -15,3 -30,10 -33,14 -3,5 -35,24 -72,44 -37,20 -75,41 -85,46 -10,5 -40,20 -68,32 -27,12 -57,25 -65,29 -9,4 -30,11 -48,15 -18,3 -32,10 -32,15 0,5 -21,12 -47,16 -27,3 -52,10 -58,14 -5,4 -29,11 -52,15 -24,4 -45,10 -48,15 -3,4 -42,11 -87,15 -45,4 -89,11 -98,16 -8,5 -76,13 -150,18 -173,11 -6461,11 -6640,-1 z M 4362,9083 c 7,-6 41,-14 76,-18 34,-4 62,-11 62,-15 0,-4 20,-11 45,-14 25,-4 45,-11 45,-16 0,-5 14,-11 30,-15 31,-7 113,-47 140,-69 8,-7 26,-17 40,-24 39,-19 63,-35 85,-59 11,-13 25,-23 31,-23 11,0 163,-153 187,-190 10,-14 29,-43 44,-65 38,-57 113,-207 113,-227 0,-9 4,-19 9,-22 5,-4 12,-24 16,-46 4,-22 11,-42 15,-45 5,-3 12,-41 16,-85 3,-44 11,-83 15,-86 5,-3 9,-87 9,-186 0,-155 -2,-184 -17,-200 -15,-17 -37,-18 -293,-18 h -276 l -28,-29 c -26,-27 -28,-35 -24,-91 3,-45 10,-66 26,-83 22,-21 29,-22 304,-25 180,-2 287,-7 295,-14 10,-8 13,-62 13,-223 0,-190 -2,-214 -18,-228 -15,-14 -57,-16 -295,-19 -268,-3 -277,-4 -298,-25 -26,-25 -36,-104 -20,-146 6,-15 23,-32 38,-38 16,-6 36,-15 45,-20 10,-5 132,-9 271,-9 183,0 256,-3 265,-12 15,-15 17,-663 2,-673 -5,-3 -10,-23 -10,-43 0,-20 -5,-55 -11,-77 -5,-22 -14,-58 -20,-80 -5,-22 -16,-53 -23,-70 -8,-16 -29,-64 -47,-105 -19,-41 -46,-91 -61,-111 -16,-20 -28,-40 -28,-45 0,-10 -77,-102 -112,-134 -16,-13 -28,-30 -28,-37 0,-7 -12,-21 -27,-30 -15,-10 -44,-35 -64,-55 -20,-21 -41,-38 -47,-38 -6,0 -15,-6 -19,-12 -10,-17 -27,-26 -153,-88 -58,-28 -118,-58 -134,-66 -16,-8 -49,-17 -73,-21 -23,-3 -43,-9 -43,-14 0,-4 -36,-11 -80,-15 -44,-3 -83,-11 -86,-15 -8,-14 -294,-11 -294,2 0,6 -16,10 -37,8 -46,-3 -121,10 -129,22 -3,5 -17,9 -32,9 -15,0 -40,7 -56,15 -15,8 -35,15 -43,15 -8,0 -27,6 -41,14 -15,7 -49,24 -75,37 -76,38 -104,54 -141,83 -19,14 -38,26 -43,26 -4,0 -23,18 -42,40 -19,22 -39,40 -45,40 -13,0 -106,91 -106,103 0,5 -16,28 -36,51 -19,22 -38,46 -42,52 -20,29 -34,53 -55,94 -13,25 -29,54 -35,65 -23,42 -41,86 -47,117 -4,18 -10,38 -14,43 -3,6 -12,37 -19,70 -28,129 -37,272 -34,553 l 3,282 h 275 c 176,0 274,4 274,10 0,6 7,10 14,10 39,0 101,99 77,123 -6,6 -11,18 -11,27 0,9 -12,27 -26,41 -26,24 -26,24 -304,29 -168,3 -283,9 -289,15 -13,13 -17,443 -5,455 5,5 136,10 291,12 l 281,3 26,24 c 14,14 26,35 26,47 0,13 5,26 10,29 16,10 11,40 -10,63 -11,12 -20,28 -20,37 0,8 -1,16 -2,17 -2,1 -138,4 -303,7 l -300,6 -5,145 c -5,145 5,317 20,355 5,11 11,40 15,64 7,55 34,139 46,147 5,3 9,12 9,21 0,21 59,140 76,154 8,6 14,16 14,22 0,5 16,29 35,53 19,23 35,47 35,52 0,13 186,187 220,207 14,8 40,21 58,30 17,8 32,19 32,23 0,7 27,21 83,41 15,6 27,15 27,21 0,5 13,10 28,10 15,0 32,4 37,9 14,12 103,39 156,47 24,4 49,10 54,15 17,12 105,17 312,15 118,-2 197,-6 205,-13 z m 2473,-153 c 3,-5 15,-10 27,-10 23,0 55,-13 188,-78 52,-25 99,-52 103,-59 4,-7 12,-13 18,-13 13,0 143,-86 159,-105 7,-8 18,-15 25,-15 6,0 22,-13 35,-30 13,-16 28,-30 34,-30 14,0 227,-208 286,-279 25,-30 60,-71 78,-91 17,-21 32,-41 32,-45 0,-3 15,-25 33,-48 40,-52 56,-77 63,-99 4,-10 10,-18 15,-18 5,0 18,-19 29,-42 28,-57 54,-102 62,-108 3,-3 10,-18 13,-33 4,-15 11,-27 16,-27 5,0 9,-5 9,-11 0,-6 14,-41 31,-78 54,-117 58,-125 70,-171 6,-25 14,-49 19,-55 9,-12 25,-76 22,-89 -2,-4 2,-13 7,-20 5,-6 12,-33 16,-61 4,-27 11,-54 15,-60 11,-14 29,-121 44,-255 7,-63 15,-122 19,-131 19,-39 -10,-589 -32,-629 -5,-9 -12,-44 -16,-78 -4,-34 -11,-64 -15,-67 -5,-3 -12,-30 -15,-60 -4,-31 -11,-58 -16,-61 -5,-3 -9,-13 -9,-22 0,-18 -48,-173 -71,-227 -14,-34 -118,-245 -157,-320 -15,-27 -32,-54 -39,-58 -7,-4 -13,-14 -13,-21 0,-20 -79,-95 -107,-102 -13,-4 -51,-4 -84,-2 -52,4 -64,9 -87,34 -41,45 -62,91 -62,133 0,36 37,120 80,181 16,23 105,204 142,290 9,19 19,51 23,70 4,19 11,40 15,45 4,6 11,26 15,45 4,19 11,40 15,45 4,6 11,34 15,62 4,29 11,55 15,58 4,3 11,33 15,67 4,35 12,66 19,70 7,5 11,99 11,315 0,315 -3,381 -15,398 -4,6 -11,40 -15,77 -3,37 -10,70 -15,73 -4,2 -11,29 -15,60 -3,30 -10,57 -15,60 -4,3 -11,23 -15,45 -4,22 -11,42 -16,46 -5,3 -9,13 -9,22 0,10 -9,34 -20,55 -11,20 -20,46 -20,57 0,11 -4,20 -10,20 -5,0 -10,5 -10,11 0,16 -43,103 -52,107 -5,2 -8,8 -8,13 0,21 -46,109 -56,109 -6,0 -14,14 -18,30 -3,17 -10,36 -15,43 -6,6 -24,28 -41,48 -16,20 -30,40 -30,45 0,4 -21,33 -48,63 -26,31 -60,72 -75,93 -21,29 -203,200 -267,251 -31,25 -81,57 -90,57 -4,0 -10,3 -12,8 -9,21 -234,142 -264,142 -8,0 -14,5 -14,10 0,6 -11,10 -25,10 -27,0 -95,54 -95,75 0,7 -5,15 -12,17 -8,3 -12,30 -12,76 -1,70 0,72 38,111 24,25 53,43 73,47 18,3 36,10 39,15 7,12 41,11 49,-1 z m -255,-677 c 25,-9 47,-19 50,-22 8,-9 42,-29 87,-52 23,-11 47,-27 54,-35 6,-8 17,-14 25,-14 7,0 17,-6 21,-13 4,-8 15,-17 23,-20 29,-13 54,-32 78,-59 13,-16 30,-28 37,-28 7,0 31,-20 54,-45 23,-25 46,-45 51,-45 5,0 18,-12 27,-27 10,-15 42,-51 71,-79 28,-29 52,-55 52,-60 0,-4 7,-16 17,-26 9,-10 21,-27 27,-37 6,-10 29,-45 51,-78 22,-32 67,-115 99,-183 32,-69 62,-132 67,-141 4,-9 11,-33 14,-53 4,-20 11,-39 16,-41 4,-3 11,-27 15,-53 3,-26 10,-52 15,-58 5,-6 12,-40 15,-75 4,-35 12,-70 18,-78 16,-20 15,-503 -1,-522 -6,-8 -14,-44 -18,-82 -4,-37 -11,-70 -16,-73 -5,-3 -9,-16 -9,-28 0,-66 -132,-393 -192,-478 -16,-21 -28,-42 -28,-46 0,-10 -47,-53 -77,-69 -13,-7 -47,-13 -76,-13 -60,0 -113,27 -133,69 -7,12 -17,28 -23,34 -6,6 -11,32 -11,57 0,37 12,72 60,166 33,65 60,125 60,132 0,7 4,20 9,30 22,41 43,89 51,122 5,19 14,55 20,80 7,25 16,54 21,65 26,55 25,515 0,570 -5,11 -12,41 -16,67 -3,26 -10,50 -15,53 -4,3 -11,23 -15,45 -4,22 -10,42 -15,45 -4,3 -11,21 -14,40 -4,19 -11,35 -16,35 -4,0 -12,15 -15,33 -4,17 -13,39 -19,47 -7,8 -21,33 -31,55 -11,22 -32,56 -47,76 -16,20 -28,40 -28,44 0,18 -228,265 -244,265 -4,0 -29,18 -55,40 -26,22 -53,40 -59,40 -7,0 -12,4 -12,9 0,5 -39,28 -87,52 -107,53 -169,107 -183,160 -12,44 -3,114 16,130 8,6 14,17 14,23 0,6 21,23 48,38 55,32 107,35 172,11 z m -339,-663 c 14,0 38,-9 52,-20 14,-11 29,-20 34,-20 4,0 34,-20 65,-45 32,-25 61,-45 65,-45 11,0 163,-153 163,-164 0,-6 13,-24 29,-41 31,-32 74,-104 117,-195 15,-30 30,-62 34,-71 5,-9 12,-34 16,-55 4,-22 12,-42 18,-46 15,-10 15,-440 0,-459 -6,-8 -14,-31 -18,-51 -4,-20 -13,-50 -21,-65 -8,-15 -15,-33 -15,-39 0,-16 -61,-128 -72,-133 -5,-2 -13,-14 -18,-27 -12,-31 -83,-64 -138,-64 -62,0 -91,18 -140,87 -17,24 -22,45 -22,92 0,34 4,61 9,61 5,0 12,14 16,30 4,17 10,30 15,30 5,0 11,13 15,30 4,16 11,32 16,35 5,4 9,15 9,25 0,10 5,31 12,47 6,15 14,44 17,63 9,57 4,239 -7,252 -5,7 -13,32 -17,55 -3,23 -13,47 -21,54 -8,6 -14,22 -14,35 0,13 -6,27 -12,31 -14,9 -32,36 -47,68 -11,25 -130,142 -162,161 -13,7 -39,20 -56,29 -56,26 -120,96 -133,143 -24,90 33,196 112,209 21,3 41,10 44,15 4,6 10,6 17,-1 6,-6 23,-11 38,-11 z m -3750,-899 49,-48 v -134 c 2,-323 18,-604 39,-659 6,-14 16,-54 22,-90 7,-35 18,-76 26,-90 7,-14 13,-33 13,-42 0,-9 6,-29 14,-45 8,-15 33,-66 55,-113 48,-100 69,-137 105,-184 14,-19 26,-38 26,-41 0,-18 247,-285 264,-285 4,0 33,-22 65,-50 32,-27 61,-50 66,-50 4,0 22,-10 39,-23 17,-12 42,-28 56,-35 14,-6 32,-16 40,-21 29,-18 165,-79 225,-102 134,-51 363,-91 525,-91 191,-1 435,47 595,117 100,44 216,104 257,132 26,18 51,33 54,33 4,0 35,25 69,55 35,30 67,55 71,55 8,0 133,129 174,181 34,42 59,80 66,102 4,9 10,17 14,17 5,0 23,30 42,66 18,36 41,74 50,84 9,10 20,31 24,47 4,15 18,48 30,71 13,24 26,59 30,78 3,19 10,37 15,39 4,3 11,27 15,53 3,26 10,52 14,57 5,6 12,39 16,75 3,36 10,70 15,76 5,6 12,163 15,350 4,250 9,347 19,369 48,106 183,129 277,46 l 43,-39 v -388 c 0,-378 -4,-509 -18,-530 -3,-6 -11,-28 -16,-50 -24,-95 -33,-130 -39,-144 -8,-21 -8,-21 -16,-55 -18,-67 -151,-339 -174,-354 -5,-3 -12,-13 -16,-21 -11,-24 -30,-54 -43,-70 -57,-68 -71,-86 -74,-96 -9,-26 -190,-224 -204,-224 -4,0 -34,-25 -66,-54 -51,-47 -129,-106 -187,-141 -9,-5 -19,-13 -22,-17 -3,-4 -32,-21 -65,-38 -33,-17 -71,-37 -85,-45 -41,-22 -151,-71 -210,-93 -30,-11 -64,-23 -75,-28 -11,-4 -27,-6 -37,-5 -9,1 -19,-3 -23,-9 -3,-5 -16,-10 -28,-10 -12,0 -40,-7 -62,-15 -22,-8 -59,-14 -82,-15 -23,0 -45,-4 -48,-10 -3,-5 -21,-10 -39,-10 -19,0 -48,-3 -65,-6 l -31,-6 v -269 -269 h 349 c 193,0 352,-4 355,-9 3,-5 22,-12 41,-15 19,-4 35,-11 35,-16 0,-6 7,-10 15,-10 8,0 26,-20 40,-43 51,-88 24,-216 -55,-253 -19,-9 -43,-21 -52,-25 -10,-5 -424,-9 -920,-9 l -903,1 -39,23 c -58,33 -85,86 -86,169 0,67 0,68 46,117 30,32 55,50 70,50 12,0 26,5 29,10 4,6 135,10 361,10 h 354 v 259 c 0,294 4,281 -83,288 -29,2 -61,8 -72,13 -11,5 -40,11 -65,15 -25,3 -58,10 -75,15 -119,37 -248,81 -262,89 -10,6 -61,30 -113,55 -104,50 -223,124 -321,201 -14,11 -43,34 -65,50 -44,34 -234,225 -276,278 -16,19 -28,40 -28,45 0,6 -6,15 -12,19 -15,9 -58,69 -58,79 0,4 -10,18 -22,32 -13,13 -32,41 -43,61 -45,85 -95,189 -95,197 0,5 -14,36 -30,69 -16,33 -30,70 -30,82 0,12 -4,25 -10,28 -5,3 -12,28 -16,55 -4,28 -10,50 -14,50 -5,0 -11,28 -15,63 -4,34 -11,67 -15,72 -18,23 -24,230 -21,724 l 1,124 49,48 48,49 h 73 73 z M 2299,2781 c 10,-10 22,-30 26,-43 4,-12 10,-25 14,-28 11,-9 51,-69 51,-76 0,-4 11,-22 25,-40 14,-18 25,-35 25,-37 0,-3 16,-29 35,-58 19,-30 35,-59 35,-66 0,-7 6,-16 13,-20 6,-4 18,-20 26,-35 8,-16 18,-28 22,-28 5,0 15,12 24,28 9,15 24,41 35,57 11,17 25,41 32,55 7,14 23,39 35,56 13,17 23,35 23,39 0,5 9,18 19,29 11,12 34,48 52,81 57,108 51,105 214,105 149,0 165,-4 165,-47 0,-26 -12,-50 -50,-103 -14,-19 -31,-46 -38,-60 -16,-33 -31,-57 -64,-101 -16,-20 -28,-40 -28,-44 0,-4 -13,-24 -28,-44 -16,-20 -32,-43 -35,-51 -10,-21 -28,-49 -59,-91 -16,-20 -28,-40 -28,-44 0,-4 -13,-24 -30,-45 -16,-21 -30,-41 -30,-46 0,-4 -7,-15 -15,-23 -16,-18 -23,-5 122,-228 40,-62 73,-116 73,-119 0,-3 13,-23 28,-43 16,-20 32,-43 36,-51 9,-20 44,-77 86,-142 67,-101 70,-110 43,-140 -14,-16 -33,-18 -156,-18 -131,0 -142,2 -164,22 -13,12 -23,26 -23,31 0,6 -11,25 -25,43 -14,18 -30,43 -35,56 -6,13 -19,37 -30,53 -21,32 -55,89 -80,133 -8,15 -24,41 -36,57 -11,17 -24,39 -28,50 -7,19 -10,17 -37,-15 -17,-19 -37,-51 -46,-70 -9,-19 -29,-51 -45,-71 -15,-20 -28,-42 -28,-48 0,-5 -12,-25 -27,-43 -16,-18 -37,-51 -48,-73 -25,-50 -55,-96 -75,-112 -22,-18 -269,-17 -292,1 -25,18 -22,55 7,107 14,24 28,52 31,62 4,9 10,17 14,17 4,0 18,19 30,43 12,23 27,47 33,52 7,6 23,30 36,55 13,25 34,56 46,70 11,14 27,36 33,50 14,30 26,48 72,115 20,27 41,61 48,75 7,14 19,36 27,49 10,18 11,30 3,47 -6,13 -15,24 -19,24 -4,0 -10,14 -14,30 -4,17 -11,30 -16,30 -5,0 -14,10 -19,23 -15,33 -33,61 -47,70 -7,4 -13,14 -13,21 0,8 -7,19 -16,27 -8,7 -24,29 -35,48 -27,50 -40,70 -71,112 -16,20 -28,40 -28,43 0,8 -41,68 -52,76 -3,3 -10,18 -13,33 -4,15 -11,27 -15,27 -14,0 -40,61 -40,92 v 28 h 160 c 144,0 162,-2 179,-19 z m 3911,-103 c 1,-1250 1,-1289 -14,-1303 -22,-23 -243,-21 -268,2 -17,15 -18,50 -18,708 0,524 3,694 12,703 8,8 56,12 150,12 h 138 z m 2178,97 c 14,-30 15,-144 3,-198 -15,-61 -29,-67 -171,-66 -69,0 -151,0 -182,0 l -58,-1 v -565 c 0,-548 -1,-565 -19,-575 -31,-16 -252,-12 -275,5 -19,14 -20,32 -19,570 1,367 -2,557 -9,561 -6,4 -91,6 -189,5 l -179,-1 -10,26 c -6,14 -10,79 -10,145 v 119 h 553 554 z M 4865,2450 c 3,-5 17,-10 31,-10 42,0 92,-27 149,-80 l 54,-52 35,36 c 46,46 137,96 173,96 16,0 34,5 40,11 19,19 157,-3 228,-36 29,-13 135,-117 135,-132 0,-5 7,-21 16,-38 23,-42 30,-213 24,-578 l -5,-302 -123,-3 c -97,-2 -126,0 -137,12 -13,12 -15,67 -15,332 0,308 -2,330 -33,417 -21,61 -138,76 -206,28 -59,-42 -61,-58 -61,-428 0,-238 -3,-339 -11,-349 -18,-22 -246,-20 -271,3 -17,15 -18,40 -18,362 0,379 0,378 -60,419 -30,20 -44,23 -91,19 -49,-4 -61,-10 -95,-43 l -39,-39 -3,-350 c -3,-303 -5,-352 -19,-367 -14,-15 -34,-18 -132,-18 -81,1 -121,5 -133,14 -17,12 -18,49 -18,521 0,472 1,509 18,521 11,9 49,13 112,14 115,0 140,-12 141,-68 0,-20 3,-30 6,-22 13,33 123,100 165,100 13,0 30,5 38,10 20,13 97,13 105,0 z m 2110,0 c 3,-5 16,-10 29,-10 23,0 80,-27 152,-73 37,-23 65,-51 123,-128 27,-35 67,-139 83,-214 15,-76 21,-202 8,-210 -5,-3 -10,-22 -10,-42 0,-53 -36,-153 -83,-228 -34,-55 -174,-165 -211,-165 -12,0 -27,-5 -33,-11 -10,-10 -108,-28 -163,-30 -33,-2 -189,20 -206,29 -11,5 -40,20 -67,33 -106,53 -220,207 -249,336 -16,75 -16,242 1,318 7,33 25,86 40,118 27,58 117,175 135,176 6,1 19,10 30,20 32,29 90,59 130,67 20,3 39,10 42,15 7,13 241,11 249,-1 z m -3050,-42 c 53,-28 145,-103 145,-120 0,-5 11,-24 25,-43 16,-20 28,-52 32,-84 3,-28 10,-54 14,-57 5,-3 9,-163 9,-356 0,-313 -2,-353 -17,-370 -14,-15 -32,-18 -130,-18 h -113 l -17,39 c -19,43 -22,43 -95,-12 -24,-18 -54,-30 -88,-34 -28,-3 -53,-10 -56,-14 -7,-12 -101,-11 -109,1 -3,6 -19,10 -35,10 -99,0 -250,155 -250,255 0,19 -4,37 -10,40 -12,8 -13,62 -1,69 4,3 11,28 15,55 3,27 13,54 21,61 8,7 15,18 15,26 0,7 24,34 53,59 50,45 137,85 182,85 12,0 26,5 33,12 7,7 63,13 149,16 76,2 142,8 147,12 8,8 -18,93 -37,117 -5,7 -25,15 -46,19 -20,4 -41,11 -47,16 -7,5 -34,2 -69,-9 -42,-13 -60,-24 -66,-41 -18,-47 -32,-53 -127,-48 -50,2 -94,6 -100,10 -6,3 -12,0 -15,-6 -3,-9 -12,-5 -31,11 -27,25 -34,55 -16,66 6,3 10,18 10,33 0,34 63,129 96,144 13,6 24,14 24,18 0,4 8,10 18,14 9,3 24,10 32,15 15,8 49,24 80,35 8,3 85,4 170,3 145,-3 158,-5 205,-29 z"
       id="path1"
       style="display:inline" />
    <path
       d="m 6796,2178 c -55,-12 -93,-43 -122,-100 -23,-45 -26,-62 -26,-163 0,-135 11,-178 57,-227 68,-73 128,-89 215,-57 68,25 110,68 110,112 0,16 6,27 14,27 9,0 15,22 20,76 11,117 1,163 -59,275 -5,11 -14,19 -19,19 -5,0 -18,8 -28,17 -23,21 -110,32 -162,21 z"
       id="path2"
       style="display:inline" />
    <path
       d="m 3660,1791 c -105,-16 -140,-62 -110,-147 8,-22 21,-32 50,-42 131,-41 260,41 248,159 l -3,34 -70,1 c -38,1 -90,-1 -115,-5 z"
       id="path3"
       style="display:inline" />
  </g>
</svg>
